# xmcd
#
# Track frame offsets:
#	150
#	19647
#	37533
#	57245
#	82419
#	99789
#	111809
#	131964
#	151389
#	178602
#	205239
#
# Disc length: 2951 seconds
#
# Revision: 1
# Processed by: cddbd v1.5.1PL0 Copyright (c) Steve Scherf et al.
# Submitted via: audiograbber 1.83.01
#
DISCID=880b850b
DTITLE=Four on the Floor - Upstairs
DYEAR=1999
DGENRE=Blues
TTITLE0=Darlin'
TTITLE1=I'm tore down
TTITLE2=Blue midnight
TTITLE3=Crossfire
TTITLE4=Down town
TTITLE5=Blowin' the family jewels
TTITLE6=Come to me
TTITLE7=Educated fool
TTITLE8=Trust my baby
TTITLE9=Cold shot
TTITLE10=Juke
EXTD=
EXTT0=
EXTT1=
EXTT2=
EXTT3=
EXTT4=
EXTT5=
EXTT6=
EXTT7=
EXTT8=
EXTT9=
EXTT10=
PLAYORDER=
